<?xml version="1.0" encoding="UTF-8"?>
<svg xmlns="http://www.w3.org/2000/svg" xmlns:xlink="http://www.w3.org/1999/xlink" width="350px" height="149px" viewBox="0 0 349 149" version="1.1">
<g id="surface1">
<path style=" stroke:none;fill-rule:nonzero;fill:rgb(0%,0%,0%);fill-opacity:1;" d="M 64.273438 22.640625 C 61.367188 23.980469 56.828125 28.8125 55.898438 31.546875 C 55.027344 34.164062 55.722656 36.085938 58.167969 37.832031 C 60.378906 39.402344 66.25 41.324219 68.925781 41.324219 C 69.972656 41.324219 72.417969 40.859375 74.335938 40.21875 C 83.0625 37.539062 84.457031 33.175781 78.699219 26.773438 C 74.21875 21.769531 69.277344 20.371094 64.273438 22.640625 Z M 64.273438 22.640625 "/>
<path style=" stroke:none;fill-rule:nonzero;fill:rgb(0%,0%,0%);fill-opacity:1;" d="M 32.691406 41.964844 C 29.257812 42.605469 24.835938 45.109375 23.207031 47.320312 C 21.988281 48.949219 21.8125 49.820312 21.8125 54.128906 C 21.8125 58.320312 22.046875 59.542969 23.382812 61.984375 C 24.199219 63.617188 25.535156 65.304688 26.347656 65.710938 C 31.699219 68.5625 41.066406 59.484375 42.171875 50.402344 C 42.636719 46.851562 41.761719 43.359375 40.25 42.546875 C 38.566406 41.671875 35.308594 41.441406 32.691406 41.964844 Z M 32.691406 41.964844 "/>
<path style=" stroke:none;fill-rule:nonzero;fill:rgb(0%,0%,0%);fill-opacity:1;" d="M 50.78125 41.90625 C 48.453125 42.835938 47.40625 45.28125 47.40625 49.820312 C 47.464844 56.691406 49.90625 58.960938 55.492188 57.386719 C 60.261719 55.992188 63.867188 51.800781 63.050781 48.542969 C 62.179688 45.109375 53.980469 40.683594 50.78125 41.90625 Z M 50.78125 41.90625 "/>
<path style=" stroke:none;fill-rule:nonzero;fill:rgb(0%,0%,0%);fill-opacity:1;" d="M 83.121094 42.140625 C 78.351562 43.828125 74.453125 47.203125 74.453125 49.707031 C 74.453125 54.945312 84.980469 60.183594 88.472656 56.632812 C 90.042969 55.058594 90.796875 50.984375 90.214844 47.144531 C 89.460938 42.488281 87.015625 40.742188 83.121094 42.140625 Z M 83.121094 42.140625 "/>
<path style=" stroke:none;fill-rule:nonzero;fill:rgb(0%,0%,0%);fill-opacity:1;" d="M 99.058594 41.964844 C 93.242188 43.652344 94.753906 55.992188 101.558594 62.277344 C 104.292969 64.78125 107.257812 66.351562 109.410156 66.351562 C 111.390625 66.351562 114.355469 62.859375 115.402344 59.367188 C 117.730469 51.625 115.925781 46.679688 109.761719 43.710938 C 105.6875 41.789062 101.851562 41.148438 99.058594 41.964844 Z M 99.058594 41.964844 "/>
<path style=" stroke:none;fill-rule:nonzero;fill:rgb(0%,0%,0%);fill-opacity:1;" d="M 66.660156 53.199219 C 64.15625 55.757812 63.519531 58.144531 64.914062 59.191406 C 66.25 60.183594 71.601562 60.183594 73 59.191406 C 74.277344 58.203125 73.929688 56.28125 72.070312 53.953125 C 69.800781 51.042969 68.8125 50.871094 66.660156 53.199219 Z M 66.660156 53.199219 "/>
<path style=" stroke:none;fill-rule:nonzero;fill:rgb(0%,0%,0%);fill-opacity:1;" d="M 152.511719 60.9375 C 151.058594 61.519531 150.535156 64.023438 151.523438 65.535156 C 153.269531 68.214844 158.214844 66.933594 158.214844 63.847656 C 158.214844 61.230469 155.421875 59.773438 152.511719 60.9375 Z M 152.511719 60.9375 "/>
<path style=" stroke:none;fill-rule:nonzero;fill:rgb(0%,0%,0%);fill-opacity:1;" d="M 292.34375 61.460938 C 290.136719 63.617188 291.878906 66.933594 295.136719 66.933594 C 297.171875 66.933594 298.976562 65.476562 298.976562 63.847656 C 298.976562 61.171875 294.324219 59.484375 292.34375 61.460938 Z M 292.34375 61.460938 "/>
<path style=" stroke:none;fill-rule:nonzero;fill:rgb(0%,0%,0%);fill-opacity:1;" d="M 176.246094 74.789062 L 176.246094 88.46875 L 183.226562 88.46875 L 183.226562 81.25 C 183.226562 74.617188 183.339844 74.035156 184.332031 73.742188 C 184.96875 73.570312 185.609375 73.625 185.785156 73.800781 C 185.957031 73.976562 186.132812 77.351562 186.132812 81.308594 L 186.132812 88.527344 L 189.796875 88.351562 L 193.402344 88.179688 L 193.402344 79.097656 C 193.402344 70.949219 193.289062 69.84375 192.300781 68.738281 C 190.960938 67.28125 187.472656 67.109375 184.96875 68.390625 L 183.226562 69.320312 L 183.226562 61.113281 L 176.246094 61.113281 Z M 176.246094 74.789062 "/>
<path style=" stroke:none;fill-rule:nonzero;fill:rgb(0%,0%,0%);fill-opacity:1;" d="M 216.378906 73.570312 C 216.378906 84.570312 216.496094 86.140625 217.425781 87.304688 C 218.707031 88.875 223.183594 89.632812 224 88.410156 C 224.699219 87.304688 224.640625 83.40625 223.941406 82.9375 C 223.59375 82.707031 223.359375 78.398438 223.359375 71.824219 L 223.359375 61.113281 L 216.378906 61.113281 Z M 216.378906 73.570312 "/>
<path style=" stroke:none;fill-rule:nonzero;fill:rgb(0%,0%,0%);fill-opacity:1;" d="M 281.527344 73.800781 C 281.527344 88.292969 281.527344 88.351562 286.355469 88.875 L 288.914062 89.167969 L 289.378906 86.429688 C 289.671875 84.394531 289.554688 83.523438 288.972656 83.171875 C 288.390625 82.824219 288.15625 80.085938 288.042969 71.882812 L 287.867188 61.113281 L 281.527344 61.113281 Z M 281.527344 73.800781 "/>
<path style=" stroke:none;fill-rule:nonzero;fill:rgb(0%,0%,0%);fill-opacity:1;" d="M 49.265625 62.742188 C 48.742188 63.324219 48.277344 64.199219 48.277344 64.664062 C 48.277344 66.0625 51.652344 71.007812 52.582031 71.007812 C 54.617188 71.007812 58.28125 64.664062 57.179688 62.917969 C 56.246094 61.460938 50.546875 61.289062 49.265625 62.742188 Z M 49.265625 62.742188 "/>
<path style=" stroke:none;fill-rule:nonzero;fill:rgb(0%,0%,0%);fill-opacity:1;" d="M 80.675781 62.101562 C 79.28125 63.5 82.246094 69.902344 84.75 70.832031 C 85.96875 71.296875 88.179688 68.738281 88.9375 65.945312 C 89.808594 62.800781 88.644531 61.695312 84.339844 61.695312 C 82.539062 61.695312 80.851562 61.871094 80.675781 62.101562 Z M 80.675781 62.101562 "/>
<path style=" stroke:none;fill-rule:nonzero;fill:rgb(0%,0%,0%);fill-opacity:1;" d="M 128.546875 75.082031 L 128.546875 88.46875 L 134.363281 88.46875 L 134.363281 82.472656 C 134.363281 79.15625 134.539062 76.246094 134.773438 76.011719 C 135.003906 75.839844 136.402344 78.457031 137.914062 81.890625 L 140.589844 88.179688 L 144.136719 88.351562 L 147.683594 88.527344 L 147.683594 75.082031 L 147.742188 61.695312 L 141.34375 61.695312 L 141.34375 68.15625 C 141.34375 71.648438 141.113281 74.441406 140.878906 74.265625 C 140.648438 74.152344 139.308594 71.242188 137.914062 67.863281 L 135.355469 61.695312 L 128.546875 61.695312 Z M 128.546875 75.082031 "/>
<path style=" stroke:none;fill-rule:nonzero;fill:rgb(0%,0%,0%);fill-opacity:1;" d="M 270.476562 75.082031 L 270.476562 88.46875 L 277.453125 88.46875 L 277.453125 61.695312 L 270.476562 61.695312 Z M 270.476562 75.082031 "/>
<path style=" stroke:none;fill-rule:nonzero;fill:rgb(0%,0%,0%);fill-opacity:1;" d="M 40.714844 66.757812 C 35.539062 68.5625 31.410156 72.113281 31.410156 74.847656 C 31.410156 78.109375 37.515625 82.707031 41.9375 82.765625 C 44.789062 82.765625 45.660156 82.125 46.765625 78.75 C 47.988281 75.199219 47.929688 72.988281 46.535156 69.960938 C 45.253906 67.050781 43.101562 65.886719 40.714844 66.757812 Z M 40.714844 66.757812 "/>
<path style=" stroke:none;fill-rule:nonzero;fill:rgb(0%,0%,0%);fill-opacity:1;" d="M 93.765625 66.992188 C 92.078125 67.632812 90.160156 71.765625 90.160156 74.789062 C 90.160156 77.234375 91.84375 81.601562 93.066406 82.359375 C 94.230469 83.113281 98.128906 82.765625 100.046875 81.773438 C 101.035156 81.25 102.898438 79.914062 104.175781 78.75 C 107.144531 76.070312 107.257812 73.800781 104.582031 71.183594 C 101.152344 67.921875 96.207031 66.003906 93.765625 66.992188 Z M 93.765625 66.992188 "/>
<path style=" stroke:none;fill-rule:nonzero;fill:rgb(0%,0%,0%);fill-opacity:1;" d="M 165.078125 68.445312 C 162.519531 69.84375 161.003906 73.453125 160.945312 78.339844 C 160.890625 85.734375 164.144531 89.457031 170.078125 88.816406 C 173.628906 88.410156 174.152344 87.945312 173.6875 85.324219 C 173.335938 83.40625 173.164062 83.289062 170.835938 83.113281 C 168.566406 82.9375 168.390625 82.824219 167.925781 80.726562 C 167.578125 79.390625 167.578125 77.46875 167.925781 76.070312 L 168.449219 73.625 L 171.125 73.742188 L 173.800781 73.800781 L 174.09375 71.414062 C 174.265625 69.667969 174.09375 68.738281 173.453125 68.214844 C 172.230469 67.226562 166.996094 67.339844 165.078125 68.445312 Z M 165.078125 68.445312 "/>
<path style=" stroke:none;fill-rule:nonzero;fill:rgb(0%,0%,0%);fill-opacity:1;" d="M 199.859375 68.679688 C 197.535156 70.191406 196.601562 72.113281 196.195312 76.421875 C 195.554688 83.523438 198.117188 88.003906 203.175781 88.757812 C 206.667969 89.285156 210.390625 88.121094 211.960938 85.964844 C 212.890625 84.6875 213.238281 83.230469 213.414062 79.621094 C 213.644531 73.742188 212.832031 70.890625 210.332031 68.96875 C 207.828125 67.050781 202.476562 66.933594 199.859375 68.679688 Z M 206.667969 75.722656 C 207.363281 79.332031 206.492188 83.464844 205.09375 83.695312 C 204.515625 83.8125 203.816406 83.578125 203.523438 83.113281 C 202.710938 81.890625 202.886719 74.265625 203.699219 73.453125 C 205.039062 72.113281 206.199219 72.988281 206.667969 75.722656 Z M 206.667969 75.722656 "/>
<path style=" stroke:none;fill-rule:nonzero;fill:rgb(0%,0%,0%);fill-opacity:1;" d="M 230.050781 68.332031 L 226.558594 68.96875 L 226.734375 71.296875 C 226.964844 74.964844 227.023438 74.964844 230.222656 74.324219 C 233.421875 73.683594 234.992188 74.035156 234.992188 75.375 C 234.992188 76.363281 234.585938 76.539062 231.269531 77.117188 C 229.875 77.351562 228.304688 78.167969 227.257812 79.214844 C 225.746094 80.785156 225.570312 81.25 225.859375 83.695312 C 226.382812 88.410156 230.222656 90.390625 234.179688 87.945312 C 235.867188 86.898438 235.980469 86.898438 237.261719 87.945312 C 238.949219 89.34375 242.265625 89.398438 242.789062 88.121094 C 243.484375 86.375 243.136719 83.929688 242.207031 83.578125 C 241.390625 83.289062 241.273438 82.414062 241.507812 78.109375 C 241.855469 71.414062 241.273438 69.378906 238.773438 68.332031 C 236.449219 67.398438 234.878906 67.398438 230.050781 68.332031 Z M 235.34375 81.136719 C 235.808594 82.359375 234.46875 84.511719 233.363281 84.277344 C 232.839844 84.160156 232.316406 83.636719 232.203125 83.054688 C 231.792969 80.960938 234.644531 79.273438 235.34375 81.136719 Z M 235.34375 81.136719 "/>
<path style=" stroke:none;fill-rule:nonzero;fill:rgb(0%,0%,0%);fill-opacity:1;" d="M 246.800781 68.679688 C 244.707031 69.902344 243.894531 72.519531 244.53125 75.898438 C 244.996094 78.226562 245.988281 79.15625 249.710938 80.902344 C 253.316406 82.589844 253.433594 84.101562 249.941406 83.636719 C 248.546875 83.464844 246.976562 83.113281 246.453125 82.882812 C 245.578125 82.589844 245.464844 82.9375 245.464844 85.441406 L 245.464844 88.351562 L 249.128906 88.757812 C 255.527344 89.457031 258.261719 87.480469 258.261719 82.183594 C 258.261719 79.214844 257.039062 77.703125 253.257812 75.898438 C 248.664062 73.742188 249.300781 72.113281 254.421875 73.21875 C 257.328125 73.859375 257.679688 73.511719 257.679688 70.132812 C 257.679688 67.804688 257.039062 67.515625 252.269531 67.515625 C 249.710938 67.515625 248.140625 67.863281 246.800781 68.679688 Z M 246.800781 68.679688 "/>
<path style=" stroke:none;fill-rule:nonzero;fill:rgb(0%,0%,0%);fill-opacity:1;" d="M 305.550781 68.679688 C 302.351562 70.601562 301.59375 72.40625 301.59375 77.992188 C 301.59375 82.125 301.828125 83.289062 302.933594 85.035156 C 304.734375 88.003906 308.050781 89.285156 312.644531 88.757812 C 314.566406 88.585938 316.425781 88.234375 316.777344 88.003906 C 317.125 87.769531 317.300781 86.605469 317.125 85.382812 L 316.890625 83.171875 L 313.578125 83.578125 C 310.902344 83.871094 310.027344 83.753906 309.273438 82.9375 C 307.179688 80.84375 307.992188 80.320312 313.226562 80.320312 L 318.171875 80.320312 L 318.171875 76.59375 C 318.171875 74.5 317.9375 72.171875 317.589844 71.355469 C 316.253906 67.804688 309.445312 66.292969 305.550781 68.679688 Z M 311.65625 74.035156 C 312.0625 74.441406 312.355469 75.199219 312.355469 75.78125 C 312.355469 76.59375 311.890625 76.828125 310.320312 76.828125 C 308.574219 76.828125 308.285156 76.652344 308.285156 75.488281 C 308.285156 74.734375 308.457031 73.917969 308.691406 73.742188 C 309.273438 73.101562 310.902344 73.277344 311.65625 74.035156 Z M 311.65625 74.035156 "/>
<path style=" stroke:none;fill-rule:nonzero;fill:rgb(0%,0%,0%);fill-opacity:1;" d="M 151.234375 78.28125 L 151.234375 88.46875 L 158.214844 88.46875 L 158.214844 68.097656 L 151.234375 68.097656 Z M 151.234375 78.28125 "/>
<path style=" stroke:none;fill-rule:nonzero;fill:rgb(0%,0%,0%);fill-opacity:1;" d="M 291.996094 78.28125 L 291.996094 88.46875 L 298.394531 88.46875 L 298.394531 68.097656 L 291.996094 68.097656 Z M 291.996094 78.28125 "/>
<path style=" stroke:none;fill-rule:nonzero;fill:rgb(0%,0%,0%);fill-opacity:1;" d="M 319.917969 68.96875 C 319.917969 69.84375 323.175781 85.617188 323.753906 87.421875 C 324.046875 88.292969 324.800781 88.46875 328.933594 88.46875 C 333.585938 88.46875 333.875 88.410156 334.167969 87.128906 C 335.039062 83.289062 337.949219 69.144531 337.949219 68.679688 C 337.949219 68.332031 336.550781 68.097656 334.808594 68.097656 C 331.199219 68.097656 331.433594 67.632812 330.328125 75.78125 C 329.28125 83.230469 328.816406 82.765625 327.476562 73.046875 C 327.1875 70.773438 326.898438 68.796875 326.898438 68.503906 C 326.898438 68.273438 325.324219 68.097656 323.40625 68.097656 C 320.730469 68.097656 319.917969 68.273438 319.917969 68.96875 Z M 319.917969 68.96875 "/>
<path style=" stroke:none;fill-rule:nonzero;fill:rgb(0%,0%,0%);fill-opacity:1;" d="M 50.371094 80.84375 C 47.289062 85.734375 48.21875 87.886719 53.511719 87.886719 C 57.121094 87.886719 57.816406 87.304688 57.351562 84.859375 C 56.945312 82.648438 53.863281 78.574219 52.582031 78.574219 C 52.175781 78.574219 51.128906 79.621094 50.371094 80.84375 Z M 50.371094 80.84375 "/>
<path style=" stroke:none;fill-rule:nonzero;fill:rgb(0%,0%,0%);fill-opacity:1;" d="M 82.714844 80.609375 C 80.910156 82.589844 79.804688 86.082031 80.5625 87.246094 C 80.96875 87.945312 85.96875 88.121094 87.484375 87.539062 C 88.007812 87.304688 88.703125 86.664062 89.054688 86.082031 C 89.984375 84.277344 87.074219 78.574219 85.15625 78.574219 C 84.808594 78.574219 83.644531 79.503906 82.714844 80.609375 Z M 82.714844 80.609375 "/>
<path style=" stroke:none;fill-rule:nonzero;fill:rgb(0%,0%,0%);fill-opacity:1;" d="M 26.292969 83.929688 C 25.59375 84.277344 24.3125 86.023438 23.382812 87.828125 C 22.046875 90.5625 21.8125 91.84375 21.8125 95.742188 C 21.8125 99.703125 22.046875 100.691406 23.148438 102.320312 C 25.652344 105.753906 33.792969 108.78125 37.808594 107.675781 C 41.238281 106.746094 42.171875 105.289062 42.113281 100.75 C 42.054688 94.40625 38.679688 88.351562 33.214844 84.859375 C 30.480469 83.171875 28.5 82.882812 26.292969 83.929688 Z M 26.292969 83.929688 "/>
<path style=" stroke:none;fill-rule:nonzero;fill:rgb(0%,0%,0%);fill-opacity:1;" d="M 105.457031 84.453125 C 100.28125 87.015625 96.089844 93.765625 95.566406 100.34375 C 95.277344 103.601562 95.394531 104.125 96.789062 105.695312 C 98.652344 107.96875 101.328125 108.492188 105.746094 107.328125 C 113.65625 105.289062 116.683594 101.621094 116.21875 94.871094 C 115.75 88.46875 112.667969 83.230469 109.410156 83.230469 C 108.597656 83.230469 106.792969 83.753906 105.457031 84.453125 Z M 105.457031 84.453125 "/>
<path style=" stroke:none;fill-rule:nonzero;fill:rgb(0%,0%,0%);fill-opacity:1;" d="M 64.679688 90.332031 C 64.273438 90.738281 63.984375 91.378906 63.984375 91.84375 C 63.984375 93.359375 66.425781 97.082031 67.878906 97.722656 C 69.160156 98.304688 69.507812 98.1875 71.253906 96.441406 C 73.523438 94.171875 74.335938 91.785156 73.289062 90.507812 C 72.417969 89.398438 65.726562 89.285156 64.679688 90.332031 Z M 64.679688 90.332031 "/>
<path style=" stroke:none;fill-rule:nonzero;fill:rgb(0%,0%,0%);fill-opacity:1;" d="M 50.78125 91.960938 C 48.511719 92.890625 47.40625 95.335938 47.40625 99.527344 C 47.40625 106.277344 49.441406 108.78125 53.921875 107.558594 C 60.433594 105.753906 64.273438 101.855469 62.878906 98.304688 C 62.238281 96.617188 59.5625 93.882812 57.585938 92.835938 C 55.492188 91.785156 52.292969 91.378906 50.78125 91.960938 Z M 50.78125 91.960938 "/>
<path style=" stroke:none;fill-rule:nonzero;fill:rgb(0%,0%,0%);fill-opacity:1;" d="M 82.714844 91.960938 C 78.582031 92.949219 74.453125 97.140625 74.453125 100.34375 C 74.453125 102.785156 79.921875 106.6875 85.039062 107.910156 C 87.539062 108.492188 89.691406 106.277344 90.160156 102.496094 C 91.207031 94.464844 88.414062 90.5625 82.714844 91.960938 Z M 82.714844 91.960938 "/>
<path style=" stroke:none;fill-rule:nonzero;fill:rgb(0%,0%,0%);fill-opacity:1;" d="M 65.671875 108.839844 C 61.714844 109.539062 57.527344 111.808594 56.246094 114.019531 C 55.199219 115.765625 55.140625 116 56.074219 118.445312 C 57.179688 121.296875 61.773438 125.953125 64.855469 127.230469 C 69.507812 129.152344 74.453125 127.582031 78.816406 122.691406 C 83.121094 117.859375 83.238281 114.078125 79.164062 111.460938 C 75.441406 109.074219 70.265625 108.082031 65.671875 108.839844 Z M 65.671875 108.839844 "/>
</g>
</svg>
