<?xml version="1.0"?>
<svg version="1.1" xmlns="http://www.w3.org/2000/svg" width="215px" height="40px" style=""><path fill="#282938" d="M18.34,34.364c0,0.616-0.252,0.756-0.672,0.756l-1.876,0c-0.42,0-0.784-0.196-1.064-0.588l-9.128-12.488l-0.056,0l0,12.348c0,0.532-0.252,0.728-0.728,0.728l-2.016,0c-0.532,0-0.756-0.14-0.756-0.7l0-17.92c0-0.588,0.252-0.756,0.756-0.756l1.82,0c0.448,0,0.672,0.14,0.952,0.532l9.212,12.656l0.056,0l0-12.46c0-0.532,0.252-0.728,0.728-0.728l2.1,0c0.588,0,0.672,0.308,0.672,0.756l0,17.864z M31.598,17.508c0,0.448-0.196,0.588-0.588,0.588l-1.596,0l0,14.672l1.512,0c0.392,0,0.588,0.252,0.588,0.588l0,1.204c0,0.336-0.14,0.56-0.504,0.56l-6.664,0c-0.364,0-0.56-0.224-0.56-0.532l0-1.26c0-0.392,0.168-0.56,0.56-0.56l1.484,0l0-14.672l-1.624,0c-0.392,0-0.56-0.196-0.56-0.56l0-1.232c0-0.308,0.168-0.56,0.504-0.56l6.86,0c0.392,0,0.588,0.252,0.588,0.532l0,1.232z M50.988,33.748c0,0.252-0.112,0.42-0.448,0.56c-1.848,0.756-3.528,1.148-5.572,1.148c-5.908,0-8.792-4.172-8.792-9.94c0-5.74,3.444-10.136,9.072-10.136c1.932,0,3.668,0.392,5.264,1.176c0.336,0.168,0.448,0.308,0.448,0.476c0,0.112-0.028,0.224-0.084,0.364l-0.644,1.764c-0.084,0.252-0.224,0.364-0.392,0.364c-0.084,0-0.196-0.056-0.308-0.112c-1.4-0.728-2.66-1.008-4.06-1.008c-3.892,0-5.404,3.584-5.404,6.972c0,4.312,2.016,7.056,5.46,7.056c1.344,0,2.716-0.308,4.032-0.896c0.14-0.056,0.252-0.112,0.336-0.112c0.196,0,0.336,0.14,0.448,0.42l0.56,1.512c0.056,0.14,0.084,0.28,0.084,0.392z M70.434,34.42c0,0.504-0.196,0.7-0.672,0.7l-2.212,0c-0.504,0-0.728-0.196-0.728-0.7l0-7.812l-7.952,0l0,7.812c0,0.504-0.224,0.7-0.7,0.7l-2.184,0c-0.504,0-0.756-0.196-0.756-0.7l0-18.004c0-0.476,0.308-0.672,0.756-0.672l2.184,0c0.448,0,0.7,0.168,0.7,0.672l0,7.308l7.952,0l0-7.308c0-0.476,0.28-0.672,0.728-0.672l2.212,0c0.448,0,0.672,0.168,0.672,0.672l0,18.004z M92.54,25.32c0,6.328-3.612,10.136-8.624,10.136c-5.348,0-8.428-3.892-8.428-9.968c0-6.02,3.36-10.108,8.624-10.108c5.544,0,8.428,4.2,8.428,9.94z M88.676,25.404c0-4.704-1.652-6.972-4.648-6.972c-2.8,0-4.676,2.604-4.676,6.972c0,4.648,1.708,7,4.676,7c2.772,0,4.648-2.436,4.648-7z M108.766,34.448c0,0.504-0.252,0.672-0.672,0.672l-9.968,0c-0.504,0-0.728-0.168-0.728-0.784l0-17.892c0-0.448,0.224-0.7,0.672-0.7l2.24,0c0.504,0,0.7,0.196,0.7,0.728l0,15.652l7.084,0c0.476,0,0.672,0.224,0.672,0.644l0,1.68z M128.604,34.672c0,0.28-0.14,0.448-0.504,0.448l-2.492,0c-0.588,0-0.784-0.224-0.952-0.672l-1.456-4.116l-7.084,0l-1.456,4.2c-0.112,0.364-0.308,0.588-0.756,0.588l-2.492,0c-0.28,0-0.392-0.14-0.392-0.364c0-0.084,0-0.196,0.056-0.308l6.832-18.144c0.14-0.336,0.336-0.56,0.756-0.56l2.24,0c0.42,0,0.672,0.196,0.784,0.504l6.86,18.06c0.056,0.14,0.056,0.252,0.056,0.364z M122.248,27.616l-1.988-5.908c-0.252-0.784-0.42-1.372-0.56-1.82l-0.056,0c-0.14,0.476-0.308,1.064-0.588,1.848l-1.988,5.88l5.18,0z M144.494,29.464c0,3.892-3.164,5.992-6.804,5.992c-1.68,0-3.668-0.308-5.348-0.896c-0.364-0.14-0.476-0.308-0.476-0.532c0-0.112,0-0.224,0.056-0.364l0.588-1.82c0.084-0.28,0.224-0.448,0.504-0.448c0.112,0,0.252,0.028,0.42,0.084c1.316,0.476,2.772,0.84,4.172,0.84c1.512,0,3.22-0.728,3.22-2.492c0-1.288-0.952-1.988-2.044-2.52l-3.64-1.82c-1.988-0.98-3.304-2.632-3.304-4.816c0-3.416,3.36-5.292,6.468-5.292c1.848,0,3.388,0.28,5.012,0.98c0.364,0.168,0.56,0.336,0.56,0.56c0,0.112-0.028,0.224-0.084,0.364l-0.672,1.708c-0.112,0.308-0.28,0.42-0.476,0.42c-0.14,0-0.28-0.056-0.448-0.112c-1.148-0.476-2.576-0.868-3.696-0.868c-1.316,0-2.828,0.56-2.828,2.128c0,1.148,1.064,1.82,1.988,2.268l3.108,1.512c2.212,1.064,3.724,2.548,3.724,5.124z M152.488,33.608c0,1.148-1.036,1.876-1.988,1.876c-0.98,0-1.988-0.672-1.988-1.848c0-1.204,0.952-1.904,1.988-1.904c1.008,0,1.988,0.7,1.988,1.876z M173.25,25.516c0,3.36-1.148,5.88-3.052,7.504c-1.736,1.456-4.172,2.1-6.944,2.1l-5.348,0c-0.56,0-0.812-0.14-0.812-0.784l0-17.752c0-0.588,0.168-0.84,0.868-0.84l4.032,0c3.22,0,5.404,0.364,7.252,1.428c2.52,1.456,4.004,4.2,4.004,8.344z M169.386,25.488c0-2.548-0.756-4.48-2.184-5.544c-1.148-0.84-2.632-1.148-4.424-1.148l-2.044,0l0,13.3l2.156,0c1.932,0,3.556-0.308,4.732-1.484c1.12-1.12,1.764-2.8,1.764-5.124z M189.98,34.448c0,0.448-0.196,0.672-0.672,0.672l-10.388,0c-0.56,0-0.756-0.14-0.756-0.756l0-17.92c0-0.448,0.196-0.7,0.644-0.7l10.556,0c0.448,0,0.588,0.168,0.588,0.476l0,0.168l-0.196,1.68c-0.056,0.504-0.364,0.588-0.952,0.588l-7.028,0l0,5.068l6.468,0c0.532,0,0.7,0.224,0.7,0.616l0,1.596c0,0.476-0.196,0.672-0.672,0.672l-6.496,0l0,5.6l7.504,0c0.476,0,0.7,0.196,0.7,0.644l0,1.596z M210.63,16.164c0,0.084-0.028,0.168-0.056,0.28l-6.58,18.06c-0.14,0.392-0.448,0.616-0.868,0.616l-1.876,0c-0.532,0-0.784-0.224-0.952-0.7l-6.888-17.892c-0.056-0.112-0.084-0.224-0.084-0.336c0-0.28,0.224-0.448,0.56-0.448l2.464,0c0.588,0,0.868,0.196,1.008,0.588l4.956,13.832l0.084,0l4.676-13.748c0.168-0.504,0.42-0.672,1.064-0.672l1.96,0c0.364,0,0.532,0.168,0.532,0.42z"/><path fill="#" d=""/></svg>
